


Format                           : AVI
Format/Info                      : Audio Video Interleave
File size                        : 768 MiB
Duration                         : 1h 30mn
Overall bit rate                 : 1 185 Kbps
Writing library                  : VirtualDub build 32839/release

Video
ID                               : 0
Format                           : MPEG-4 Visual
Format profile                   : Advanced Simple@L5
Format settings, BVOP            : Yes
Format settings, QPel            : No
Format settings, GMC             : No warppoints
Format settings, Matrix          : Custom
Codec ID                         : XVID
Codec ID/Hint                    : XviD
Duration                         : 1h 30mn
Bit rate                         : 1 048 Kbps
Width                            : 656 pixels
Height                           : 368 pixels
Display aspect ratio             : 16:9
Frame rate                       : 23.976 fps
Color space                      : YUV
Chroma subsampling               : 4:2:0
Bit depth                        : 8 bits
Scan type                        : Progressive
Bits/(Pixel*Frame)               : 0.181
Stream size                      : 679 MiB (88%)
Writing library                  : XviD 1.2.1 (UTC 2008-12-04)

Audio
ID                               : 1
Format                           : MPEG Audio
Format version                   : Version 1
Format profile                   : Layer 3
Mode                             : Joint stereo
Mode extension                   : MS Stereo
Codec ID                         : 55
Codec ID/Hint                    : MP3
Duration                         : 1h 30mn
Bit rate mode                    : Constant
Bit rate                         : 128 Kbps
Channel(s)                       : 2 channels
Sampling rate                    : 48.0 KHz
Stream size                      : 82.9 MiB (11%)
Alignment                        : Split accross interleaves
Interleave, duration             : 42 ms (1.00 video frame)
Interleave, preload duration     : 500 ms
Writing library                  : LAME3.98r
Encoding settings                : -m j -V 4 -q 3 -lowpass 17 -b 128



 
http://www.imdb.com/title/tt1707687/







Plot

Ray Liotta (Goodfellas) delivers an intense, electrifying performance
in this explosive follow-up to the gritty urban crime thriller Street Kings.
Liotta plays Detroit detective Marty Kingston, the leader of an undercover
narcotics team, whose members are being systematically murdered one by one.
To solve the brutal killings, Kingston joins forces with a cocky, young homicide
detective. But neither of them is prepared for the shocking corruption their
investigation will uncoverΓÇôstunning secrets that will set both men on a violent
collision course with betrayal and vengeance.







 
http://img152.imageshack.us/img152/6183/vlcsnap2011041215h39m06.png
 
http://img717.imageshack.us/img717/7977/vlcsnap2011041215h39m42.png



Source...............: CHD ................ Thanks



Greetz to Imagine ,Flawl3ss,DiLLoN,BDK,NOiR,TOXiCiNK,THC,Ez,Rx,Boobyblue



